<svg width="18" height="19" viewBox="0 0 18 19" fill="none" xmlns="http://www.w3.org/2000/svg">
<rect width="18" height="18" transform="translate(0 0.5)" fill="white" fill-opacity="0.01"/>
<g clip-path="url(#clip0_1_2386)">
<path d="M12.742 11.844C13.7103 10.5227 14.144 8.88447 13.9563 7.25713C13.7687 5.62979 12.9735 4.13332 11.7298 3.06711C10.4862 2.0009 8.88579 1.44358 7.24888 1.50666C5.61197 1.56973 4.05923 2.24854 2.90131 3.40729C1.74339 4.56603 1.06569 6.11926 1.00379 7.75621C0.94189 9.39317 1.50035 10.9931 2.56745 12.236C3.63455 13.4789 5.13159 14.273 6.75906 14.4596C8.38654 14.6461 10.0244 14.2112 11.345 13.242H11.344C11.374 13.282 11.406 13.32 11.442 13.357L15.292 17.207C15.4796 17.3946 15.7339 17.5001 15.9992 17.5002C16.2645 17.5003 16.5189 17.395 16.7065 17.2075C16.8942 17.02 16.9997 16.7656 16.9997 16.5003C16.9998 16.2351 16.8946 15.9806 16.707 15.793L12.857 11.943C12.8213 11.9068 12.7828 11.8734 12.742 11.843V11.844ZM13 7.99998C13 8.72225 12.8578 9.43745 12.5814 10.1047C12.305 10.772 11.8999 11.3783 11.3891 11.8891C10.8784 12.3998 10.2721 12.8049 9.6048 13.0813C8.93751 13.3577 8.22231 13.5 7.50004 13.5C6.77777 13.5 6.06258 13.3577 5.39528 13.0813C4.72799 12.8049 4.12168 12.3998 3.61096 11.8891C3.10023 11.3783 2.69511 10.772 2.41871 10.1047C2.14231 9.43745 2.00004 8.72225 2.00004 7.99998C2.00004 6.54129 2.57951 5.14234 3.61096 4.11089C4.64241 3.07944 6.04135 2.49998 7.50004 2.49998C8.95873 2.49998 10.3577 3.07944 11.3891 4.11089C12.4206 5.14234 13 6.54129 13 7.99998Z" fill="#6C757D"/>
</g>
<defs>
<clipPath id="clip0_1_2386">
<rect width="16" height="16" fill="white" transform="translate(1 1.5)"/>
</clipPath>
</defs>
</svg>
